<svg xmlns="http://www.w3.org/2000/svg" xmlns:xlink="http://www.w3.org/1999/xlink" width="261" height="231" preserveAspectRatio="xMidYMid meet" version="1.0" viewBox="0 0 195.75 173.25" zoomAndPan="magnify"><defs><clipPath id="2aa9b3f7e8"><path d="M 53.816406 50 L 74 50 L 74 69 L 53.816406 69 Z M 53.816406 50" clip-rule="nonzero"/></clipPath><clipPath id="2377c6a7b2"><path d="M 101 16.464844 L 117 16.464844 L 117 42 L 101 42 Z M 101 16.464844" clip-rule="nonzero"/></clipPath><clipPath id="8cfac341c6"><path d="M 53.816406 70 L 74 70 L 74 89 L 53.816406 89 Z M 53.816406 70" clip-rule="nonzero"/></clipPath><clipPath id="325f595783"><path d="M 64 78 L 91 78 L 91 122.507812 L 64 122.507812 Z M 64 78" clip-rule="nonzero"/></clipPath><clipPath id="a762cac6bd"><path d="M 122 62 L 141.679688 62 L 141.679688 81 L 122 81 Z M 122 62" clip-rule="nonzero"/></clipPath></defs><g clip-path="url(#2aa9b3f7e8)"><path fill="#80cc28" fill-opacity="1" fill-rule="nonzero" d="M 53.820312 50.8125 C 53.820312 50.8125 77.8125 48.863281 72.929688 67.097656 C 61.886719 72.109375 58.886719 63.40625 56.910156 56.933594 C 55.816406 53.355469 53.820312 50.8125 53.820312 50.8125"/></g><path fill="#80cc28" fill-opacity="1" fill-rule="nonzero" d="M 73.835938 25.953125 C 73.835938 25.953125 92.171875 41.59375 75.871094 51.027344 C 64.53125 46.738281 68.542969 38.453125 71.703125 32.472656 C 73.453125 29.167969 73.835938 25.953125 73.835938 25.953125"/><g clip-path="url(#2377c6a7b2)"><path fill="#80cc28" fill-opacity="1" fill-rule="nonzero" d="M 110.636719 16.472656 C 110.636719 16.472656 92.300781 32.113281 108.605469 41.546875 C 119.945312 37.253906 115.933594 28.972656 112.769531 22.992188 C 111.023438 19.6875 110.636719 16.472656 110.636719 16.472656"/></g><path fill="#80cc28" fill-opacity="1" fill-rule="nonzero" d="M 119.867188 34.367188 C 119.867188 34.367188 105.644531 46.5 118.289062 53.8125 C 127.085938 50.488281 123.972656 44.0625 121.519531 39.421875 C 120.164062 36.859375 119.867188 34.367188 119.867188 34.367188"/><path fill="#80cc28" fill-opacity="1" fill-rule="nonzero" d="M 77.757812 50.773438 C 77.757812 50.773438 94.878906 49.613281 91.222656 62.566406 C 83.304688 66.03125 81.25 59.800781 79.898438 55.167969 C 79.152344 52.605469 77.757812 50.773438 77.757812 50.773438"/><path fill="#1c6434" fill-opacity="1" fill-rule="nonzero" d="M 119.429688 45.75 C 119.429688 44.953125 118.785156 44.308594 117.996094 44.308594 C 117.203125 44.308594 116.558594 44.953125 116.558594 45.75 C 116.558594 46.542969 117.203125 47.1875 117.996094 47.1875 C 118.785156 47.1875 119.429688 46.542969 119.429688 45.75 Z M 117.300781 48.195312 C 116.238281 47.890625 115.460938 46.914062 115.460938 45.75 C 115.460938 44.34375 116.59375 43.207031 117.996094 43.207031 C 119.394531 43.207031 120.527344 44.34375 120.527344 45.75 C 120.527344 46.832031 119.851562 47.753906 118.902344 48.121094 L 118.902344 71.882812 L 103.09375 87.742188 L 103.09375 109.363281 L 101.492188 109.363281 L 101.492188 87.078125 L 117.300781 71.214844 L 117.300781 48.195312"/><path fill="#1c6434" fill-opacity="1" fill-rule="nonzero" d="M 110.421875 33.851562 C 110.421875 33.058594 109.78125 32.414062 108.988281 32.414062 C 108.195312 32.414062 107.554688 33.058594 107.554688 33.851562 C 107.554688 34.648438 108.195312 35.289062 108.988281 35.289062 C 109.78125 35.289062 110.421875 34.648438 110.421875 33.851562 Z M 108.230469 36.277344 C 107.199219 35.953125 106.453125 34.992188 106.453125 33.851562 C 106.453125 32.445312 107.589844 31.308594 108.988281 31.308594 C 110.390625 31.308594 111.523438 32.445312 111.523438 33.851562 C 111.523438 34.960938 110.816406 35.898438 109.832031 36.25 L 109.832031 58.140625 L 103.09375 64.898438 L 103.09375 79.925781 L 101.492188 79.925781 L 101.492188 64.234375 L 108.230469 57.476562 L 108.230469 36.277344"/><path fill="#1c6434" fill-opacity="1" fill-rule="nonzero" d="M 67.164062 62.871094 C 67.957031 62.871094 68.597656 62.230469 68.597656 61.433594 C 68.597656 60.640625 67.957031 59.996094 67.164062 59.996094 C 66.371094 59.996094 65.730469 60.640625 65.730469 61.433594 C 65.730469 62.230469 66.371094 62.871094 67.164062 62.871094 Z M 67.164062 58.890625 C 68.5625 58.890625 69.699219 60.027344 69.699219 61.433594 C 69.699219 61.855469 69.59375 62.253906 69.414062 62.605469 L 83 76.234375 L 83 84.71875 L 90.152344 91.898438 L 90.152344 102.671875 L 88.550781 102.671875 L 88.550781 92.5625 L 81.398438 85.386719 L 81.398438 76.902344 L 68.261719 63.722656 C 67.929688 63.882812 67.558594 63.976562 67.164062 63.976562 C 65.761719 63.976562 64.628906 62.839844 64.628906 61.433594 C 64.628906 60.027344 65.761719 58.890625 67.164062 58.890625"/><g clip-path="url(#8cfac341c6)"><path fill="#80cc28" fill-opacity="1" fill-rule="nonzero" d="M 53.820312 70.648438 C 53.820312 70.648438 77.8125 68.699219 72.929688 86.933594 C 61.886719 91.945312 58.886719 83.242188 56.910156 76.769531 C 55.816406 73.191406 53.820312 70.648438 53.820312 70.648438"/></g><g clip-path="url(#325f595783)"><path fill="#1c6434" fill-opacity="1" fill-rule="nonzero" d="M 67.164062 82.707031 C 67.957031 82.707031 68.597656 82.066406 68.597656 81.269531 C 68.597656 80.476562 67.957031 79.832031 67.164062 79.832031 C 66.371094 79.832031 65.730469 80.476562 65.730469 81.269531 C 65.730469 82.066406 66.371094 82.707031 67.164062 82.707031 Z M 67.164062 78.726562 C 68.5625 78.726562 69.699219 79.863281 69.699219 81.269531 C 69.699219 81.691406 69.59375 82.089844 69.414062 82.441406 L 83 96.070312 L 83 104.554688 L 90.152344 111.734375 L 90.152344 122.507812 L 88.550781 122.507812 L 88.550781 112.398438 L 81.398438 105.222656 L 81.398438 96.738281 L 68.261719 83.558594 C 67.929688 83.71875 67.558594 83.8125 67.164062 83.8125 C 65.761719 83.8125 64.628906 82.675781 64.628906 81.269531 C 64.628906 79.863281 65.761719 78.726562 67.164062 78.726562"/></g><g clip-path="url(#a762cac6bd)"><path fill="#80cc28" fill-opacity="1" fill-rule="nonzero" d="M 141.9375 62.933594 C 141.9375 62.933594 117.949219 60.984375 122.828125 79.222656 C 133.871094 84.230469 136.871094 75.527344 138.851562 69.054688 C 139.945312 65.480469 141.9375 62.933594 141.9375 62.933594"/></g><path fill="#1c6434" fill-opacity="1" fill-rule="nonzero" d="M 130.03125 73.554688 C 130.03125 72.761719 129.386719 72.117188 128.597656 72.117188 C 127.804688 72.117188 127.164062 72.761719 127.164062 73.554688 C 127.164062 74.351562 127.804688 74.996094 128.597656 74.996094 C 129.386719 74.996094 130.03125 74.351562 130.03125 73.554688 Z M 131.132812 73.554688 C 131.132812 74.960938 129.996094 76.097656 128.597656 76.097656 C 128.203125 76.097656 127.828125 76.007812 127.496094 75.84375 L 114.363281 89.023438 L 114.363281 97.507812 L 107.207031 104.683594 L 107.207031 114.792969 L 105.605469 114.792969 L 105.605469 104.019531 L 112.761719 96.839844 L 112.761719 88.359375 L 126.347656 74.726562 C 126.164062 74.375 126.0625 73.976562 126.0625 73.554688 C 126.0625 72.152344 127.195312 71.011719 128.597656 71.011719 C 129.996094 71.011719 131.132812 72.152344 131.132812 73.554688"/><path fill="#1c6434" fill-opacity="1" fill-rule="nonzero" d="M 75.992188 42.652344 C 75.203125 42.652344 74.558594 43.296875 74.558594 44.089844 C 74.558594 44.886719 75.203125 45.527344 75.992188 45.527344 C 76.785156 45.527344 77.429688 44.886719 77.429688 44.089844 C 77.429688 43.296875 76.785156 42.652344 75.992188 42.652344 Z M 76.890625 46.464844 L 76.890625 60.785156 L 90.152344 74.09375 L 90.152344 86.609375 L 88.550781 86.609375 L 88.550781 74.761719 L 75.289062 61.453125 L 75.289062 46.53125 C 74.230469 46.226562 73.457031 45.25 73.457031 44.089844 C 73.457031 42.683594 74.59375 41.546875 75.992188 41.546875 C 77.394531 41.546875 78.527344 42.683594 78.527344 44.089844 C 78.527344 45.179688 77.847656 46.105469 76.890625 46.464844"/><path fill="#1c6434" fill-opacity="1" fill-rule="nonzero" d="M 85.847656 55.753906 C 85.054688 55.753906 84.414062 56.398438 84.414062 57.191406 C 84.414062 57.988281 85.054688 58.632812 85.847656 58.632812 C 86.636719 58.632812 87.28125 57.988281 87.28125 57.191406 C 87.28125 56.398438 86.636719 55.753906 85.847656 55.753906 Z M 85.847656 59.734375 C 84.445312 59.734375 83.3125 58.597656 83.3125 57.191406 C 83.3125 55.789062 84.445312 54.648438 85.847656 54.648438 C 87.246094 54.648438 88.382812 55.789062 88.382812 57.191406 C 88.382812 57.585938 88.289062 57.957031 88.128906 58.289062 L 96.457031 66.644531 L 96.457031 117.328125 L 94.855469 117.328125 L 94.855469 67.308594 L 87.019531 59.445312 C 86.667969 59.628906 86.269531 59.734375 85.847656 59.734375"/><g fill="#1c6434" fill-opacity="1"><g><g><path d="M 13.992188 -19.785156 L 13.992188 -12.15625 L 6.53125 -12.15625 L 6.53125 -19.785156 L 2.261719 -19.785156 L 2.261719 0 L 6.53125 0 L 6.53125 -8.167969 L 13.992188 -8.167969 L 13.992188 0 L 18.261719 0 L 18.261719 -19.785156 Z M 13.992188 -19.785156" transform="translate(25.500312, 146.67384)"/></g></g></g><g fill="#1c6434" fill-opacity="1"><g><g><path d="M 1.980469 -17.296875 L 6.078125 -17.296875 L 6.078125 -21.113281 L 1.980469 -21.113281 Z M 1.980469 0 L 6.105469 0 L 6.105469 -15.261719 L 1.980469 -15.261719 Z M 1.980469 0" transform="translate(46.048896, 146.67384)"/></g></g></g><g fill="#1c6434" fill-opacity="1"><g><g><path d="M 2.316406 -17.296875 L 6.417969 -17.296875 L 6.417969 -21.113281 L 2.316406 -21.113281 Z M -1.273438 5.511719 L 0.707031 5.511719 C 4.070312 5.511719 6.445312 3.136719 6.445312 -0.199219 L 6.445312 -15.261719 L 2.316406 -15.261719 L 2.316406 -0.507812 C 2.316406 0.960938 1.527344 1.722656 0.0546875 1.722656 L -1.273438 1.722656 Z M -1.273438 5.511719" transform="translate(54.132656, 146.67384)"/></g></g></g><g fill="#1c6434" fill-opacity="1"><g><g><path d="M 14.414062 -15.261719 L 13.992188 -13.820312 C 12.664062 -14.980469 10.9375 -15.6875 8.960938 -15.6875 C 4.382812 -15.6875 0.960938 -12.238281 0.960938 -7.632812 C 0.960938 -3.023438 4.382812 0.453125 8.960938 0.453125 C 10.910156 0.453125 12.605469 -0.226562 13.90625 -1.386719 L 14.273438 0 L 17.496094 0 L 17.496094 -15.261719 Z M 9.300781 -3.449219 C 6.898438 -3.449219 5.144531 -5.257812 5.144531 -7.632812 C 5.144531 -10.035156 6.898438 -11.816406 9.300781 -11.816406 C 11.703125 -11.816406 13.453125 -10.035156 13.453125 -7.632812 C 13.453125 -5.230469 11.703125 -3.449219 9.300781 -3.449219 Z M 9.300781 -3.449219" transform="translate(62.555596, 146.67384)"/></g></g></g><g fill="#1c6434" fill-opacity="1"><g><g><path d="M 8.933594 0.453125 C 13.257812 0.453125 16.113281 -2.316406 16.113281 -6.445312 L 16.113281 -15.261719 L 11.984375 -15.261719 L 11.984375 -6.898438 C 11.984375 -4.75 10.855469 -3.449219 8.933594 -3.449219 C 7.039062 -3.449219 5.878906 -4.71875 5.878906 -6.898438 L 5.878906 -15.261719 L 1.753906 -15.261719 L 1.753906 -6.445312 C 1.753906 -2.316406 4.636719 0.453125 8.933594 0.453125 Z M 8.933594 0.453125" transform="translate(82.058376, 146.67384)"/></g></g></g><g fill="#1c6434" fill-opacity="1"><g><g><path d="M 15.886719 -19.785156 L 0.59375 -19.785156 L 0.59375 -15.800781 L 6.105469 -15.800781 L 6.105469 0 L 10.375 0 L 10.375 -15.800781 L 15.886719 -15.800781 Z M 15.886719 -19.785156" transform="translate(99.950061, 146.67384)"/></g></g></g><g fill="#1c6434" fill-opacity="1"><g><g><path d="M 16.789062 -7.660156 C 16.789062 -12.070312 13.566406 -15.6875 8.875 -15.6875 C 4.351562 -15.6875 0.960938 -12.210938 0.960938 -7.632812 C 0.960938 -3.050781 4.382812 0.453125 8.875 0.453125 C 12.4375 0.453125 15.347656 -1.667969 16.449219 -5.003906 L 12.125 -5.003906 C 11.503906 -3.902344 10.316406 -3.222656 8.875 -3.222656 C 6.867188 -3.222656 5.511719 -4.382812 5.144531 -6.472656 L 16.707031 -6.472656 C 16.761719 -6.867188 16.789062 -7.265625 16.789062 -7.660156 Z M 8.875 -12.15625 C 10.742188 -12.15625 12.070312 -11.136719 12.664062 -9.269531 L 5.257812 -9.269531 C 5.738281 -11.082031 7.039062 -12.15625 8.875 -12.15625 Z M 8.875 -12.15625" transform="translate(116.456761, 146.67384)"/></g></g></g><g fill="#1c6434" fill-opacity="1"><g><g><path d="M 9.074219 0.453125 C 13.058594 0.453125 16.195312 -2.148438 16.902344 -5.992188 L 12.746094 -5.992188 C 12.042969 -4.351562 10.742188 -3.449219 9.074219 -3.449219 C 6.867188 -3.449219 5.144531 -5.285156 5.144531 -7.632812 C 5.144531 -10.007812 6.839844 -11.816406 9.074219 -11.816406 C 10.710938 -11.816406 12.097656 -10.910156 12.746094 -9.414062 L 16.847656 -9.414062 C 16.113281 -13.171875 13.058594 -15.6875 9.101562 -15.6875 C 4.464844 -15.6875 0.960938 -12.238281 0.960938 -7.660156 C 0.960938 -3.082031 4.464844 0.453125 9.074219 0.453125 Z M 9.074219 0.453125" transform="translate(134.207117, 146.67384)"/></g></g></g><g fill="#1c6434" fill-opacity="1"><g><g><path d="M 10.710938 -15.601562 C 8.875 -15.601562 7.265625 -14.925781 6.105469 -13.820312 L 6.105469 -20.746094 L 1.980469 -20.746094 L 1.980469 0 L 6.105469 0 L 6.105469 -8 C 6.105469 -10.488281 7.460938 -11.984375 9.527344 -11.984375 C 11.363281 -11.984375 12.183594 -10.855469 12.183594 -8.566406 L 12.183594 0 L 16.308594 0 L 16.308594 -9.269531 C 16.308594 -13.144531 14.160156 -15.601562 10.710938 -15.601562 Z M 10.710938 -15.601562" transform="translate(151.872677, 146.67384)"/></g></g></g></svg>